<svg xmlns="http://www.w3.org/2000/svg" viewBox="0 0 113.71 53.69"><title>資產 1</title><g id="圖層_2" data-name="圖層 2"><g id="圖層_1-2" data-name="圖層 1"><path d="M21.56,22.5V16H8.29V29.54h6.45v-7Z"/><path d="M.17,16h6.4V29.47H.17Z"/><path d="M23.18,29.48V16h6.4v13.5Z"/><path d="M8.12,53.52v-6.4H21.61v6.4Z"/><path d="M14.68,6.59H8.23V.06h6.45Z"/><path d="M6.69,8v6.39H.22V8Z"/><path d="M14.6,14.69H8.31V8.14H14.6Z"/><path d="M37.65,29.56H31.26V23.09h6.39Z"/><path d="M8.14,31h6.45V37.5H8.14Z"/><path d="M23,37.47V31.18h6.56v6.29Z"/><path d="M37.65,37.56H31.26V31.09h6.39Z"/><path d="M0,45.38V39.16H6.58v6.22Z"/><path d="M8.1,45.55V39.1h6.54v6.45Z"/><path d="M29.6,45.69H23.31V39.14H29.6Z"/><path d="M31.19,39h6.36v6.44H31.19Z"/><path d="M.1,6.55V.1H6.64V6.55Z"/><path d="M6.51,53.69H.29V47.11H6.51Z"/><path d="M.18,31H6.56v6.47H.18Z"/><path d="M23.18,47h6.38v6.47H23.18Z"/><path d="M90.68,29.6H84.23V16.06h6.45Z"/><path d="M98.73,16V29.47H92.18V16Z"/><path d="M113.71,47.13v6.39H100.13V47.13Z"/><path d="M100.29,16h13.34v6.57H100.29Z"/><path d="M90.63,14.55H84.28V8.1h6.35Z"/><path d="M98.54,14.6H92.2V8h6.34Z"/><path d="M82.51,22.69H76.29V16.11h6.22Z"/><path d="M90.73,31.16v6.33H84.16V31.16Z"/><path d="M92.19,31h6.36v6.44H92.19Z"/><path d="M90.7,39.12v6.4H84.3v-6.4Z"/><path d="M92.1,45.55V39.1h6.54v6.45Z"/><path d="M92.15,53.5V47.15h6.44V53.5Z"/><path d="M54.15,29.45V16h6.41V29.45Z"/><path d="M62.15,29.54V16h6.29V29.54Z"/><path d="M60.65,6.56H54.26V.09h6.39Z"/><path d="M52.54,14.6H46.2V8h6.34Z"/><path d="M54.14,8h6.45V14.5H54.14Z"/><path d="M68.35,14.65H62.23V8.06h6.12Z"/><path d="M62.18,0h6.38V6.47H62.18Z"/><path d="M60.63,37.55H54.28V31.1h6.35Z"/><path d="M62.15,31h6.32V37.4H62.15Z"/><path d="M62.18,39h6.26v6.35H62.18Z"/><path d="M54.15,53.5V47.15h6.44V53.5Z"/><path d="M68.53,47.09v6.37H62.26V47.09Z"/><path d="M60.73,39.16v6.33H54.16V39.16Z"/></g></g></svg>