<svg xmlns="http://www.w3.org/2000/svg" viewBox="0 0 596.93 596.93"><defs><style>.cls-1,.cls-2{fill:none;stroke-linecap:round;stroke-linejoin:round;stroke-width:30px;}.cls-1{stroke:#7f7f7f;}.cls-2{stroke:#ec0;}</style></defs><title>icon</title><g id="圖層_2" data-name="圖層 2"><g id="圖層_1-2" data-name="圖層 1"><path class="cls-1" d="M581.93,298.46C581.93,141.92,455,15,298.46,15S15,141.92,15,298.46,141.92,581.93,298.46,581.93,581.93,455,581.93,298.46"/><path class="cls-1" d="M298.46,15V177.83"/><path class="cls-1" d="M298.46,581.93V419.07"/><path class="cls-2" d="M298.46,419.07c-132.82-26.8-132.82,53.6,0,26.8"/><path class="cls-2" d="M298.46,151c132.83,26.81,132.83,134,0,160.82"/><path class="cls-2" d="M298.46,285.05c132.83,26.8,132.83,134,0,160.82"/><path class="cls-2" d="M298.46,151c-132.82-26.8-132.82,53.61,0,26.8"/><path class="cls-2" d="M298.46,285.05c-132.82-26.8-132.82,53.61,0,26.8"/></g></g></svg>