<svg xmlns="http://www.w3.org/2000/svg" viewBox="0 0 1780.81 2056.45"><defs><style>.cls-1{fill:#7f7f7f;}.cls-2{fill:#ec0;}</style></defs><title>資產 1</title><g id="圖層_2" data-name="圖層 2"><g id="圖層_1-2" data-name="圖層 1"><path class="cls-1" d="M328.37,1158.86a12.5,12.5,0,0,1-12.5-12.5V919.59A12.5,12.5,0,0,1,323.73,908l112.72-45.09L182,761.11a12.5,12.5,0,0,1,0-23.21L436.45,636.12,182,534.34a12.5,12.5,0,0,1,0-23.21L436.45,409.35,182,307.57a12.5,12.5,0,0,1,0-23.21l133.87-53.55V12.5a12.5,12.5,0,0,1,25,0V239.27A12.5,12.5,0,0,1,333,250.88L220.3,296,474.75,397.74a12.51,12.51,0,0,1,0,23.22L220.3,522.74,474.75,624.52a12.5,12.5,0,0,1,0,23.21L220.3,749.51,474.75,851.29a12.5,12.5,0,0,1,0,23.21L340.87,928.05v218.31A12.5,12.5,0,0,1,328.37,1158.86Z"/><path class="cls-1" d="M1462.23,1158.86H952a12.5,12.5,0,0,1,0-25h510.24a12.5,12.5,0,0,1,0,25Z"/><path class="cls-1" d="M952,1272.24a12.5,12.5,0,0,1-12.5-12.5V1033a12.5,12.5,0,0,1,25,0v226.77A12.49,12.49,0,0,1,952,1272.24Z"/><path class="cls-1" d="M781.91,1357.28a12.5,12.5,0,0,1-12.5-12.5V947.93a12.5,12.5,0,0,1,25,0v396.85A12.49,12.49,0,0,1,781.91,1357.28Z"/><path class="cls-1" d="M781.91,1158.86H328.37a12.5,12.5,0,0,1,0-25H781.91a12.5,12.5,0,1,1,0,25Z"/><path class="cls-1" d="M1462.23,25H328.37a12.5,12.5,0,0,1,0-25H1462.23a12.5,12.5,0,0,1,0,25Z"/><path class="cls-1" d="M1462.23,875.39A296,296,0,1,1,1671.5,788.7,294,294,0,0,1,1462.23,875.39Zm0-566.93c-149.41,0-271,121.56-271,271s121.56,271,271,271,271-121.55,271-271S1611.64,308.46,1462.23,308.46Z"/><path class="cls-1" d="M1462.23,471.3a12.5,12.5,0,0,1-12.5-12.5V12.5a12.5,12.5,0,0,1,25,0V458.8A12.5,12.5,0,0,1,1462.23,471.3Z"/><path class="cls-1" d="M1462.23,1158.86a12.5,12.5,0,0,1-12.5-12.5V700a12.5,12.5,0,0,1,25,0v446.32A12.5,12.5,0,0,1,1462.23,1158.86Z"/><path class="cls-2" d="M1412.21,744.89c-28.84,0-49.79-6.63-58.29-19.31a21.23,21.23,0,0,1,0-24.29c13-19.48,55.5-24.66,110.78-13.51a12.5,12.5,0,0,1-4.94,24.51c-31.29-6.31-51.85-5.85-63.59-4.36-10.36,1.32-16.32,3.74-19.26,5.51,2.94,1.76,8.9,4.18,19.26,5.5,11.74,1.5,32.3,2,63.59-4.36a12.5,12.5,0,0,1,4.94,24.51C1445.41,743,1427.67,744.89,1412.21,744.89Z"/><path class="cls-2" d="M1462.22,605.32a12.5,12.5,0,0,1-2.46-24.75c54.42-11,89.59-37.74,89.58-68.16s-35.16-57.18-89.58-68.16a12.5,12.5,0,1,1,4.94-24.5c33.42,6.74,61.22,19,80.38,35.43,18.87,16.18,29.26,36.51,29.26,57.23s-10.39,41-29.26,57.23c-19.16,16.44-47,28.69-80.38,35.43A12.35,12.35,0,0,1,1462.22,605.32Z"/><path class="cls-2" d="M1462.22,739.34a12.5,12.5,0,0,1-2.46-24.76c54.42-11,89.58-37.73,89.58-68.15s-35.16-57.18-89.58-68.16a12.5,12.5,0,0,1,4.94-24.51c33.42,6.75,61.22,19,80.38,35.43,18.87,16.19,29.26,36.52,29.26,57.24s-10.39,41-29.26,57.23c-19.16,16.43-47,28.68-80.38,35.43A12.35,12.35,0,0,1,1462.22,739.34Z"/><path class="cls-2" d="M1412.21,476.85c-28.84,0-49.79-6.62-58.29-19.31a21.21,21.21,0,0,1,0-24.28c13-19.49,55.5-24.67,110.78-13.51a12.5,12.5,0,0,1-4.94,24.5c-31.29-6.31-51.85-5.85-63.59-4.35-10.36,1.32-16.32,3.73-19.26,5.5,2.94,1.77,8.9,4.18,19.26,5.5,11.74,1.5,32.3,2,63.59-4.36a12.5,12.5,0,0,1,4.94,24.51C1445.41,474.94,1427.67,476.85,1412.21,476.85Z"/><path class="cls-2" d="M1412.21,610.87c-28.84,0-49.79-6.62-58.29-19.31a21.23,21.23,0,0,1,0-24.29c13-19.49,55.5-24.66,110.78-13.51a12.5,12.5,0,0,1-4.94,24.51c-31.29-6.32-51.85-5.85-63.59-4.36-10.36,1.32-16.32,3.74-19.26,5.51,2.94,1.76,8.9,4.18,19.26,5.5,11.74,1.5,32.3,2,63.59-4.35a12.5,12.5,0,0,1,4.94,24.5C1445.41,609,1427.67,610.87,1412.21,610.87Z"/><path class="cls-1" d="M110.6,1457.43c-9.45,25.55-21.7,50.4-35.35,74.2v236.25H49.35V1572.23a355.83,355.83,0,0,1-34.65,42.35C12.25,1608.28,4.9,1595,0,1589c34.3-33.6,66.85-85.75,86.1-139ZM317.81,1729v25.2H100.1V1729H222.25c12.6-46.9,26.6-121.1,33.25-173.25l27,4.9c-9.11,53.55-23.46,121.8-36.06,168.35Zm-14.35-191.8H114.8V1512H303.46Zm-142.11,175.7c-2.8-36.4-12.95-100.45-23.8-149.1l23.45-5.25c11.55,48.65,22.05,111.3,25.9,147Zm39.55-204.75c-2.8-14.7-9.8-38.15-16.45-55.65l24.5-6.3c6.3,17.5,14.35,39.9,17.5,54.25Z"/><path class="cls-1" d="M767.21,1737.43c14,0,16.1-9.1,17.85-62.65,6,4.9,17.15,9.45,24.15,11.55-2.8,59.5-9.8,76-40.25,76H718.9c-31.15,0-39.55-9.1-39.55-38.85v-124.6H613.9c-6.65,74.9-23.45,136.15-103.95,168.7-3.15-6.3-10.5-15.75-16.45-20.3,74.55-28.35,87.5-83,92.75-148.4H497.7v-25.2H804v25.2H705.6v124.25c0,11.9,2.8,14.35,16.45,14.35Zm7.35-236.25H528.15v-24.85H774.56Z"/><path class="cls-1" d="M1030.75,1658.68c-4.2,32.9-13,67.55-30.45,95.2-4.9-3.85-15.75-9.1-22-11.55,27.3-41.65,31.15-99.4,31.15-138.6v-47.25h142.8v102.2Zm70-198.1c-1.75,2.8-3.85,5.6-5.6,8.4,27.3,16.45,59.85,36.75,77,50.75l-13.65,21.35c-17.15-14.35-49.35-36-77.35-53.55-23.8,29-56.35,53.9-87.85,71-2.8-5.95-9.8-18.2-14.35-23.8,38.5-18.55,77.35-48.3,98.35-83.3Zm-70.35,214.2h129.85v90.65h-23.1v-13.65H1052.8v14.35h-22.4Zm97.65-35.35v-23.8H1033.9c-.35,7.35-.7,15.75-1.4,23.8Zm-94.15-63.7v22.4h94.15v-22.4Zm86.8-53.9V1539h-73.5v-17.15Zm-67.9,172.55v36.75h84.35v-36.75Zm163.45-15.05h-24.5v-191.8h24.5Zm66.16-228.9v283.15c0,16.45-4.2,24.5-14,28.7-10.51,4.55-27.66,5.25-56,5.25a132.94,132.94,0,0,0-8.75-25.9c21,.7,39.9.7,45.5.35,5.95-.35,8.06-2.1,8.06-8v-283.5Z"/><path class="cls-1" d="M1478.05,1746.88c17.5-15.4,32.9-40.6,41.3-60.9l21.7,9.8c-9.8,21-24.15,46.9-42,63.35Zm302.76-216.3v21.35H1481.9v-21.35h80.85a154.58,154.58,0,0,0-12.6-29.75l22-4.9h-74.55v-21.35H1622.6a205.39,205.39,0,0,0-12.25-23.1l25.2-5.25c6,8,11.55,19.25,15.75,28.35H1763v21.35H1693.3l20.3,4.55c-5.6,10.85-11.2,21-16.45,30.1Zm-40.61,140H1618.75c18.2,9.8,39.2,24.15,50,34.3l-16.1,16.1c-11.2-11.55-35-28-54.25-39.2l11.9-11.2H1522.5V1569.43h217.7Zm-25.55-83.3h-167.3v24.15h167.3Zm0,41.3h-167.3v24.15h167.3Zm-46.55,115.15c15.05,0,17.15-4.2,18.9-35.35,5.6,3.85,15.75,7.35,22.4,9.1-2.8,38.5-10.85,48-38.85,48h-65.8c-35.35,0-44.8-6.65-44.8-31.5v-45.15h25.55v45.15c0,8,3.15,9.8,21.35,9.8Zm-93.8-247.8c6.3,10.5,12.6,24.5,15.4,34.65h80.85a302.37,302.37,0,0,0,16.1-34.65ZM1735,1682.83c17.51,17.5,37.11,42.7,45.86,59.85l-22.06,11.2c-7.69-17.5-27-43.05-44.45-62Z"/><path class="cls-1" d="M18.31,2053.44V1889.69H67.06a116.53,116.53,0,0,1,23,2.13,54.71,54.71,0,0,1,18.13,6.87,33.83,33.83,0,0,1,11.87,12.38q4.26,7.64,4.25,18.62a37.49,37.49,0,0,1-7,22q-7,10-21.5,13.75v1q18,2.76,27.63,12.5t9.62,26.5q0,12.25-4.5,21.25a41,41,0,0,1-12.75,15,56.43,56.43,0,0,1-19.62,8.88,102.41,102.41,0,0,1-25.13,2.87Zm25-95.75H64.06q19,0,27.38-6.25t8.37-19q0-12.24-8.75-17.25t-26.25-5H43.31Zm0,75.25H68.06q19.5,0,30-6.87t10.5-22.13q0-14.25-10.25-20.25t-30.25-6H43.31Z"/><path class="cls-1" d="M168.56,2053.44v-20.25h45v-111h-35.5v-15.5a152.73,152.73,0,0,0,24.38-5,91.21,91.21,0,0,0,17.62-7.5h18.25v139h40.25v20.25Z"/><path class="cls-1" d="M393.31,2056.45q-13.5,0-22.88-3.76a36.9,36.9,0,0,1-15-10.5,41.39,41.39,0,0,1-8.12-16.12,80.88,80.88,0,0,1-2.5-20.88v-54h-33.5v-18.75l34.5-1.25,3.25-38.75h20.5v38.75h57.75v20H369.56v54q0,15.75,6.37,23.5t23.13,7.75a73.76,73.76,0,0,0,14.75-1.37,82.2,82.2,0,0,0,13.25-3.88l5,18.25q-8.25,2.76-17.5,4.88A95.86,95.86,0,0,1,393.31,2056.45Z"/><path class="cls-1" d="M683.3,2056.45a72.22,72.22,0,0,1-28.5-5.63,64.35,64.35,0,0,1-23-16.5,79.47,79.47,0,0,1-15.37-26.5q-5.62-15.61-5.63-35.88,0-20,5.63-35.75a79.51,79.51,0,0,1,15.5-26.75,66.68,66.68,0,0,1,23.5-16.87,74.75,74.75,0,0,1,29.87-5.88,57,57,0,0,1,26.75,6.13,71.23,71.23,0,0,1,19.25,14.12l-14,15.75a51,51,0,0,0-14-10.37,39.76,39.76,0,0,0-18-3.88,45.24,45.24,0,0,0-20,4.38,43.66,43.66,0,0,0-15.37,12.5,59.51,59.51,0,0,0-9.88,19.75,90.62,90.62,0,0,0-3.5,26.12,92.84,92.84,0,0,0,3.5,26.5,59.4,59.4,0,0,0,10,20,44.16,44.16,0,0,0,15.5,12.63,45.67,45.67,0,0,0,20.25,4.37,40.48,40.48,0,0,0,19.25-4.5,55.78,55.78,0,0,0,15.75-12.75l14,15.25a68.3,68.3,0,0,1-22.37,17.63Q699.8,2056.44,683.3,2056.45Z"/><path class="cls-1" d="M779.8,2053.44V1931.19h20.5l2,28.5h.75a70.79,70.79,0,0,1,23.13-23.25,57,57,0,0,1,30.12-8.25,64.19,64.19,0,0,1,12.75,1.13,48.81,48.81,0,0,1,11.25,3.87l-5.5,21.25q-6.25-2-10.75-3a54.92,54.92,0,0,0-11.5-1,48.17,48.17,0,0,0-25.5,7.5q-12.25,7.5-22.5,26v69.5Z"/><path class="cls-1" d="M977.8,2056.45a77.16,77.16,0,0,1-26-4.26,60.63,60.63,0,0,1-21-12.5,58,58,0,0,1-14.13-20.25,68.89,68.89,0,0,1-5.12-27.25,65.8,65.8,0,0,1,5.25-26.87,62.43,62.43,0,0,1,13.87-20.13,59.9,59.9,0,0,1,19.88-12.62,64.4,64.4,0,0,1,23.5-4.38,63.62,63.62,0,0,1,24,4.25,48.89,48.89,0,0,1,17.62,11.88,51.52,51.52,0,0,1,10.88,18.25,69.81,69.81,0,0,1,3.75,23.37c0,2.67-.09,5.17-.25,7.5a49.85,49.85,0,0,1-.75,6h-93q2,19,14.37,28.25t30.38,9.25a58.17,58.17,0,0,0,18.75-2.87,84.08,84.08,0,0,0,16.75-7.88l8.75,15.75a96,96,0,0,1-21.38,10.38A79.1,79.1,0,0,1,977.8,2056.45Zm-3-108.76a41,41,0,0,0-13.25,2.13,34.26,34.26,0,0,0-11.25,6.37,37.94,37.94,0,0,0-8.5,10.5,46.36,46.36,0,0,0-5,14.5h71.25q-1.26-16.74-10.13-25.12T974.8,1947.69Z"/><path class="cls-1" d="M1105.55,2056.45a52.14,52.14,0,0,1-16.38-2.51,38.73,38.73,0,0,1-13.12-7.12,34.52,34.52,0,0,1-6.88-43.63q4.88-7.74,15.25-13.25t26.75-9a301.82,301.82,0,0,1,39.38-5.25,30.82,30.82,0,0,0-7.38-19.25q-6.87-8-23.12-8a58.47,58.47,0,0,0-21.88,4.25,148.89,148.89,0,0,0-19.62,9.5l-9.25-16.75c3.33-2,7.08-4,11.25-6.12a115.67,115.67,0,0,1,13.37-5.63,107.76,107.76,0,0,1,14.75-4,80.74,80.74,0,0,1,15.63-1.5q25.5,0,38.25,13.75t12.75,38v73.5h-20.25l-2-15.75h-.75a115.46,115.46,0,0,1-21.88,13.13A58.49,58.49,0,0,1,1105.55,2056.45Zm7-19.76a45.76,45.76,0,0,0,19.12-4.25,86.78,86.78,0,0,0,18.88-12v-29a277.88,277.88,0,0,0-30,3.88q-12,2.39-19.13,6t-10.12,8.12a17.65,17.65,0,0,0-3,10q0,9.25,7.12,13.25T1112.55,2036.69Z"/><path class="cls-1" d="M1293.29,2056.45q-13.5,0-22.87-3.76a36.9,36.9,0,0,1-15-10.5,41.54,41.54,0,0,1-8.13-16.12,81.32,81.32,0,0,1-2.5-20.88v-54h-33.5v-18.75l34.5-1.25,3.25-38.75h20.5v38.75h57.75v20h-57.75v54q0,15.75,6.38,23.5t23.12,7.75a73.69,73.69,0,0,0,14.75-1.37,81.9,81.9,0,0,0,13.25-3.88l5,18.25q-8.25,2.76-17.5,4.88A95.79,95.79,0,0,1,1293.29,2056.45Z"/><path class="cls-1" d="M1421.79,2053.44V1951.19H1367v-20h79.5v122.25Zm10.25-146a18.72,18.72,0,0,1-13.25-4.87q-5.25-4.87-5.25-12.88t5.25-12.87a20.43,20.43,0,0,1,26.5,0q5.25,4.88,5.25,12.87t-5.25,12.88A18.72,18.72,0,0,1,1432,1907.44Z"/><path class="cls-1" d="M1556.79,2053.44l-50-122.25h25l25.75,66.5q3.49,9.25,6.63,18.25t6.37,18h1q3.24-9,6.25-18t6.5-18.25l25.75-66.5h23.75l-49,122.25Z"/><path class="cls-1" d="M1727.79,2056.45a77.16,77.16,0,0,1-26-4.26,60.63,60.63,0,0,1-21-12.5,58,58,0,0,1-14.13-20.25,68.89,68.89,0,0,1-5.12-27.25,65.8,65.8,0,0,1,5.25-26.87,62.43,62.43,0,0,1,13.87-20.13,59.9,59.9,0,0,1,19.88-12.62,64.4,64.4,0,0,1,23.5-4.38,63.62,63.62,0,0,1,24,4.25,48.89,48.89,0,0,1,17.62,11.88,51.52,51.52,0,0,1,10.88,18.25,69.81,69.81,0,0,1,3.75,23.37c0,2.67-.09,5.17-.25,7.5a49.85,49.85,0,0,1-.75,6h-93q2,19,14.37,28.25t30.38,9.25a58.17,58.17,0,0,0,18.75-2.87,84.08,84.08,0,0,0,16.75-7.88l8.75,15.75a96,96,0,0,1-21.38,10.38A79.1,79.1,0,0,1,1727.79,2056.45Zm-3-108.76a41,41,0,0,0-13.25,2.13,34.26,34.26,0,0,0-11.25,6.37,37.94,37.94,0,0,0-8.5,10.5,46.36,46.36,0,0,0-5,14.5H1758q-1.26-16.74-10.13-25.12T1724.79,1947.69Z"/></g></g></svg>