<svg xmlns="http://www.w3.org/2000/svg" viewBox="0 0 4716.19 1357.28"><defs><style>.cls-1{fill:#7f7f7f;}.cls-2{fill:#ec0;}</style></defs><title>logo橫</title><g id="圖層_2" data-name="圖層 2"><g id="圖層_1-2" data-name="圖層 1"><path class="cls-1" d="M154.23,1158.86a12.5,12.5,0,0,1-12.5-12.5V919.59A12.5,12.5,0,0,1,149.59,908l112.72-45.09L7.86,761.11a12.5,12.5,0,0,1,0-23.21L262.31,636.12,7.86,534.34a12.5,12.5,0,0,1,0-23.21L262.31,409.35,7.86,307.57a12.5,12.5,0,0,1,0-23.21l133.87-53.55V12.5a12.5,12.5,0,0,1,25,0V239.27a12.51,12.51,0,0,1-7.85,11.61L46.16,296,300.61,397.75a12.5,12.5,0,0,1,0,23.21L46.16,522.74,300.61,624.52a12.5,12.5,0,0,1,0,23.21L46.16,749.51,300.61,851.29a12.5,12.5,0,0,1,0,23.21L166.73,928.05v218.31A12.5,12.5,0,0,1,154.23,1158.86Z"/><path class="cls-1" d="M1288.09,1158.86H777.85a12.5,12.5,0,0,1,0-25h510.24a12.5,12.5,0,0,1,0,25Z"/><path class="cls-1" d="M777.85,1272.24a12.5,12.5,0,0,1-12.5-12.5V1033a12.5,12.5,0,0,1,25,0v226.77A12.49,12.49,0,0,1,777.85,1272.24Z"/><path class="cls-1" d="M607.78,1357.28a12.49,12.49,0,0,1-12.5-12.5V947.93a12.5,12.5,0,0,1,25,0v396.85A12.5,12.5,0,0,1,607.78,1357.28Z"/><path class="cls-1" d="M607.78,1158.86H154.23a12.5,12.5,0,0,1,0-25H607.78a12.5,12.5,0,0,1,0,25Z"/><path class="cls-1" d="M1288.09,25H154.23a12.5,12.5,0,0,1,0-25H1288.09a12.5,12.5,0,0,1,0,25Z"/><path class="cls-1" d="M1288.09,875.39a296,296,0,1,1,209.28-86.69A294,294,0,0,1,1288.09,875.39Zm0-566.93c-149.41,0-271,121.56-271,271s121.55,271,271,271,271-121.55,271-271S1437.5,308.46,1288.09,308.46Z"/><path class="cls-1" d="M1288.09,471.3a12.5,12.5,0,0,1-12.5-12.5V12.5a12.5,12.5,0,0,1,25,0V458.8A12.5,12.5,0,0,1,1288.09,471.3Z"/><path class="cls-1" d="M1288.09,1158.86a12.5,12.5,0,0,1-12.5-12.5V700a12.5,12.5,0,0,1,25,0v446.32A12.5,12.5,0,0,1,1288.09,1158.86Z"/><path class="cls-2" d="M1238.07,744.89c-28.84,0-49.79-6.63-58.29-19.31a21.21,21.21,0,0,1,0-24.28c13-19.5,55.5-24.67,110.78-13.51a12.5,12.5,0,0,1-4.94,24.5c-31.29-6.31-51.85-5.86-63.59-4.36-10.36,1.32-16.32,3.74-19.26,5.51,2.94,1.76,8.9,4.18,19.26,5.5,11.74,1.5,32.3,2,63.59-4.36a12.5,12.5,0,0,1,4.94,24.51C1271.27,743,1253.53,744.89,1238.07,744.89Z"/><path class="cls-2" d="M1288.08,605.32a12.5,12.5,0,0,1-2.46-24.75c54.42-11,89.59-37.74,89.59-68.16s-35.17-57.18-89.59-68.16a12.5,12.5,0,1,1,4.94-24.5c33.42,6.74,61.22,19,80.38,35.43,18.87,16.18,29.27,36.51,29.27,57.23s-10.4,41-29.27,57.23c-19.16,16.44-47,28.69-80.38,35.43A12.35,12.35,0,0,1,1288.08,605.32Z"/><path class="cls-2" d="M1288.08,739.34a12.5,12.5,0,0,1-2.46-24.76c54.42-11,89.59-37.73,89.59-68.15s-35.17-57.18-89.59-68.16a12.5,12.5,0,0,1,4.94-24.51c33.42,6.75,61.22,19,80.38,35.43,18.87,16.19,29.27,36.52,29.27,57.24s-10.4,41-29.27,57.23c-19.16,16.43-47,28.68-80.38,35.43A12.35,12.35,0,0,1,1288.08,739.34Z"/><path class="cls-2" d="M1238.07,476.85c-28.84,0-49.79-6.62-58.29-19.31a21.21,21.21,0,0,1,0-24.28c13-19.49,55.5-24.67,110.78-13.51a12.5,12.5,0,0,1-4.94,24.5c-31.29-6.31-51.85-5.85-63.59-4.35-10.36,1.32-16.32,3.73-19.26,5.5,2.94,1.77,8.9,4.18,19.26,5.5,11.74,1.5,32.3,2,63.59-4.36a12.5,12.5,0,0,1,4.94,24.51C1271.27,474.94,1253.53,476.85,1238.07,476.85Z"/><path class="cls-2" d="M1238.07,610.87c-28.84,0-49.79-6.62-58.29-19.31a21.21,21.21,0,0,1,0-24.28c13-19.49,55.5-24.67,110.78-13.52a12.5,12.5,0,0,1-4.94,24.51c-31.29-6.31-51.85-5.85-63.59-4.36-10.36,1.32-16.32,3.74-19.26,5.51,2.94,1.76,8.9,4.18,19.26,5.5,11.74,1.5,32.3,2,63.59-4.35a12.5,12.5,0,0,1,4.94,24.5C1271.27,609,1253.54,610.87,1238.07,610.87Z"/><path class="cls-1" d="M2153.25,175.08c-14.5,39.21-33.3,77.34-54.24,113.86V651.47h-39.75V351.24a546.48,546.48,0,0,1-53.17,65c-3.76-9.67-15-30.08-22.55-39.21,52.63-51.56,102.58-131.58,132.12-213.22ZM2471.2,591.85v38.67H2137.14V591.85h187.44c19.34-72,40.82-185.82,51-265.85l41.36,7.52c-14,82.17-36,186.9-55.32,258.33Zm-22-294.31H2159.7V258.87h289.48Zm-218,269.61c-4.3-55.86-19.87-154.14-36.52-228.8l36-8.05c17.72,74.65,33.84,170.79,39.75,225.57ZM2291.82,253c-4.3-22.56-15-58.54-25.24-85.4l37.59-9.67c9.67,26.86,22,61.23,26.85,83.25Z"/><path class="cls-1" d="M3160.81,604.74c21.48,0,24.71-14,27.39-96.13,9.13,7.52,26.32,14.5,37.06,17.72-4.3,91.3-15,116.55-61.76,116.55h-76.81c-47.8,0-60.69-14-60.69-59.62V392.06H2925.57c-10.2,114.94-36,208.93-159.51,258.87-4.84-9.66-16.11-24.17-25.25-31.15,114.4-43.5,134.28-127.28,142.33-227.72H2747.26V353.39H3217.2v38.67H3066.28V582.72c0,18.27,4.3,22,25.25,22Zm11.28-362.52H2794V204.08h378.1Z"/><path class="cls-1" d="M3565.23,483.9c-6.44,50.49-19.87,103.66-46.72,146.09-7.52-5.91-24.17-14-33.84-17.73,41.89-63.91,47.8-152.53,47.8-212.68v-72.5H3751.6V483.9Zm107.42-304c-2.69,4.29-5.91,8.59-8.6,12.88,41.9,25.25,91.84,56.4,118.16,77.88l-20.94,32.76c-26.32-22-75.73-55.32-118.7-82.17-36.52,44.58-86.47,82.71-134.81,109-4.29-9.13-15-27.93-22-36.52,59.08-28.47,118.7-74.12,150.92-127.83Zm-108,328.69H3764v139.1H3728.5v-21H3599.07v22h-34.38Zm149.85-54.25V417.84H3570.06c-.53,11.28-1.07,24.17-2.14,36.52Zm-144.48-97.75V391h144.48V356.61Zm133.2-82.71v26.32H3590.47V273.9ZM3599.07,538.68v56.4H3728.5v-56.4Zm250.81-23.09h-37.59V221.27h37.59Zm101.51-351.25v434.5c0,25.24-6.44,37.59-21.48,44-16.11,7-42.43,8-85.93,8-2.15-10.74-8.06-28.46-13.43-39.74,32.22,1.07,61.22,1.07,69.82.54,9.13-.54,12.35-3.23,12.35-12.36v-435Z"/><path class="cls-1" d="M4251.62,619.25c26.85-23.64,50.48-62.31,63.37-93.46l33.3,15c-15,32.23-37.06,72-64.45,97.21Zm464.57-331.92v32.76H4257.52V287.33h124.07c-4.3-14-11.28-31.69-19.33-45.65l33.83-7.52h-114.4V201.4h191.74a314.38,314.38,0,0,0-18.8-35.45l38.67-8.06c9.13,12.36,17.73,29.54,24.17,43.51H4688.8v32.76H4581.92l31.15,7c-8.59,16.65-17.19,32.23-25.24,46.19Zm-62.3,214.83H4467.52c27.93,15,60.16,37.06,76.8,52.64l-24.7,24.7c-17.19-17.72-53.71-43-83.25-60.15l18.26-17.19h-134.8V347h334.06Zm-39.21-127.82H4358V411.4h256.72Zm0,63.37H4358v37.06h256.72Zm-71.43,176.7c23.1,0,26.32-6.44,29-54.24,8.6,5.91,24.17,11.28,34.38,14-4.3,59.08-16.65,73.58-59.62,73.58H4446c-54.25,0-68.75-10.2-68.75-48.34V530.09h39.21v69.28c0,12.36,4.83,15,32.76,15ZM4399.31,234.16c9.67,16.11,19.34,37.6,23.63,53.17H4547a464.14,464.14,0,0,0,24.71-53.17ZM4645.83,521c26.86,26.85,56.93,65.52,70.36,91.84L4682.35,630c-11.81-26.86-41.35-66.06-68.2-95.07Z"/><path class="cls-1" d="M2011.64,1089.67V838.39h74.8a178.48,178.48,0,0,1,35.3,3.26,83.82,83.82,0,0,1,27.81,10.55,51.87,51.87,0,0,1,18.22,19q6.53,11.71,6.53,28.58a57.6,57.6,0,0,1-10.75,33.76q-10.74,15.35-33,21.1v1.53q27.63,4.23,42.39,19.18t14.77,40.67q0,18.79-6.9,32.61a62.94,62.94,0,0,1-19.57,23,86.73,86.73,0,0,1-30.11,13.61,156.9,156.9,0,0,1-38.56,4.42ZM2050,942.74h31.84q29.14,0,42-9.59T2136.7,904q0-18.79-13.43-26.47T2083,869.85h-33Zm0,115.47h38q29.92,0,46-10.55t16.11-34q0-21.87-15.73-31.08t-46.42-9.2h-38Z"/><path class="cls-1" d="M2242.19,1089.67v-31.08h69.06V888.26h-54.48V864.48q22.64-3.08,37.41-7.68a139.82,139.82,0,0,0,27-11.5h28v213.29H2411v31.08Z"/><path class="cls-1" d="M2587.07,1094.27q-20.71,0-35.1-5.76t-23-16.11a63.75,63.75,0,0,1-12.47-24.74,124.64,124.64,0,0,1-3.83-32V932.76h-51.41V904l52.94-1.92,5-59.46h31.46v59.46h88.62v30.69h-88.62v82.87q0,24.17,9.78,36.06t35.49,11.89a113.28,113.28,0,0,0,22.63-2.11,126.6,126.6,0,0,0,20.33-6l7.67,28q-12.66,4.23-26.85,7.48A146.69,146.69,0,0,1,2587.07,1094.27Z"/><path class="cls-1" d="M3032.07,1094.27a110.79,110.79,0,0,1-43.73-8.63,98.73,98.73,0,0,1-35.29-25.32q-15-16.69-23.6-40.67t-8.63-55q0-30.68,8.63-54.85t23.79-41a102.36,102.36,0,0,1,36.06-25.9,114.67,114.67,0,0,1,45.84-9q23,0,41.05,9.4t29.54,21.67L3084.25,889a78.38,78.38,0,0,0-21.49-15.92q-11.9-5.94-27.62-6a69.19,69.19,0,0,0-30.69,6.72,66.76,66.76,0,0,0-23.59,19.18q-9.78,12.47-15.16,30.3t-5.37,40.09q0,22.65,5.37,40.67t15.35,30.69a67.75,67.75,0,0,0,23.78,19.37,70.13,70.13,0,0,0,31.08,6.71,62.23,62.23,0,0,0,29.54-6.9,86,86,0,0,0,24.17-19.57l21.48,23.41a104.79,104.79,0,0,1-34.33,27Q3057.39,1094.26,3032.07,1094.27Z"/><path class="cls-1" d="M3180.15,1089.67V902.07h31.46l3.07,43.74h1.15q14.57-23,35.48-35.68a87.55,87.55,0,0,1,46.23-12.66,97.72,97.72,0,0,1,19.56,1.73,75.06,75.06,0,0,1,17.27,5.94l-8.44,32.61q-9.6-3.06-16.5-4.6a83.79,83.79,0,0,0-17.65-1.54q-20.33,0-39.13,11.51T3218.13,983v106.65Z"/><path class="cls-1" d="M3484,1094.27a118.88,118.88,0,0,1-39.9-6.52,93.11,93.11,0,0,1-32.22-19.18,88.78,88.78,0,0,1-21.68-31.08q-7.86-18.4-7.86-41.81,0-23,8-41.24a95.69,95.69,0,0,1,21.29-30.88,92,92,0,0,1,30.5-19.38,98.75,98.75,0,0,1,36.06-6.71q20.72,0,36.83,6.52a74.9,74.9,0,0,1,27,18.22,79,79,0,0,1,16.69,28,107.26,107.26,0,0,1,5.75,35.87q0,6.13-.38,11.51a75.82,75.82,0,0,1-1.15,9.2H3420.3q3.06,29.16,22,43.35t46.62,14.2a89.14,89.14,0,0,0,28.77-4.42,129.07,129.07,0,0,0,25.7-12.08l13.43,24.17a147.3,147.3,0,0,1-32.8,15.92A121.48,121.48,0,0,1,3484,1094.27Zm-4.61-166.88a62.81,62.81,0,0,0-20.33,3.26,52.73,52.73,0,0,0-17.26,9.78,58.18,58.18,0,0,0-13,16.12,71.22,71.22,0,0,0-7.68,22.25H3530.4q-1.93-25.69-15.54-38.56T3479.37,927.39Z"/><path class="cls-1" d="M3680,1094.27a80.08,80.08,0,0,1-25.13-3.84,59.55,59.55,0,0,1-20.14-10.93,50,50,0,0,1-18-39.32q0-15.73,7.48-27.62t23.4-20.34q15.91-8.43,41-13.81t60.42-8q-.76-17.26-11.32-29.54t-35.48-12.28a89.77,89.77,0,0,0-33.57,6.52,228.09,228.09,0,0,0-30.11,14.58l-14.2-25.7q7.68-4.61,17.27-9.4a177.79,177.79,0,0,1,20.52-8.63,164.14,164.14,0,0,1,22.63-6.14,124.27,124.27,0,0,1,24-2.3q39.13,0,58.7,21.1T3787,976.88v112.79H3756l-3.07-24.17h-1.15a177.67,177.67,0,0,1-33.57,20.14A89.88,89.88,0,0,1,3680,1094.27Zm10.74-30.31a70.4,70.4,0,0,0,29.35-6.52,132.91,132.91,0,0,0,29-18.41v-44.5a424.12,424.12,0,0,0-46,5.94q-18.42,3.66-29.35,9.21t-15.54,12.47a27,27,0,0,0-4.6,15.34q0,14.21,10.93,20.34T3690.75,1064Z"/><path class="cls-1" d="M3968.11,1094.27q-20.71,0-35.1-5.76t-23-16.11a63.48,63.48,0,0,1-12.47-24.74,124.2,124.2,0,0,1-3.83-32V932.76h-51.41V904l52.94-1.92,5-59.46h31.45v59.46h88.62v30.69h-88.62v82.87q0,24.17,9.79,36.06t35.48,11.89a113.38,113.38,0,0,0,22.64-2.11,126.9,126.9,0,0,0,20.33-6l7.67,28q-12.66,4.23-26.85,7.48A146.75,146.75,0,0,1,3968.11,1094.27Z"/><path class="cls-1" d="M4165.29,1089.67V932.76h-84V902.07h122v187.6Zm15.73-224q-12.29,0-20.33-7.48t-8.06-19.76q0-12.27,8.06-19.76t20.33-7.48q12.27,0,20.33,7.48t8.06,19.76q0,12.29-8.06,19.76T4181,865.63Z"/><path class="cls-1" d="M4372.44,1089.67l-76.72-187.6h38.36l39.52,102q5.35,14.19,10.16,28t9.78,27.62h1.54q5-13.8,9.59-27.62t10-28l39.52-102h36.44l-75.19,187.6Z"/><path class="cls-1" d="M4634.84,1094.27a118.83,118.83,0,0,1-39.89-6.52,93.16,93.16,0,0,1-32.23-19.18,88.62,88.62,0,0,1-21.67-31.08q-7.87-18.4-7.87-41.81,0-23,8.06-41.24a95.69,95.69,0,0,1,21.29-30.88,91.86,91.86,0,0,1,30.5-19.38,98.71,98.71,0,0,1,36.06-6.71q20.71,0,36.83,6.52a74.86,74.86,0,0,1,27,18.22,79,79,0,0,1,16.69,28,107,107,0,0,1,5.75,35.87q0,6.13-.38,11.51a75.82,75.82,0,0,1-1.15,9.2H4571.16q3.06,29.16,22.06,43.35t46.61,14.2a89.14,89.14,0,0,0,28.77-4.42,129.4,129.4,0,0,0,25.71-12.08l13.42,24.17a147.08,147.08,0,0,1-32.8,15.92A121.48,121.48,0,0,1,4634.84,1094.27Zm-4.6-166.88a62.81,62.81,0,0,0-20.33,3.26,52.78,52.78,0,0,0-17.27,9.78,58.36,58.36,0,0,0-13,16.12,71.22,71.22,0,0,0-7.67,22.25h109.33q-1.92-25.69-15.54-38.56T4630.24,927.39Z"/></g></g></svg>